<svg width="96" height="96" viewBox="0 0 96 96" fill="none" xmlns="http://www.w3.org/2000/svg">
<path fill-rule="evenodd" clip-rule="evenodd" d="M29.6725 21.8724C33.663 22.3334 37.954 21.474 42.579 19.138C42.1199 22.3646 42.0865 25.8725 42.5039 29.6851C40.2582 29.5132 38.0125 29.0835 35.7668 28.4429C18.4857 23.3647 6.19697 33.5836 3.40863 47.6072H1.17962H1.08779C0.44497 47.6619 -0.0392336 48.1932 0.00250807 48.7948L1.5553 67.4279C1.57199 68.0216 2.09794 68.4982 2.74076 68.4982H6.14688C6.72292 69.7248 7.37409 70.9435 8.10039 72.1467C12.2495 78.9671 17.2752 85.9907 25.0726 92.3736C32.4859 97.3424 39.0143 96.6627 45.0501 93.5845C49.8504 95.7174 54.9262 96.5612 60.3693 94.6471C61.1791 94.3658 61.9889 93.9908 62.7987 93.5533H94.8062C95.1485 93.5533 95.4908 93.4127 95.7245 93.147C96.1336 92.6783 96.0584 91.983 95.5575 91.5923L84.9468 83.5297L95.4741 76.1077C95.7913 75.9124 96 75.5686 96 75.1858C96 74.5764 95.4741 74.0764 94.8145 74.0764H80.2634L80.4137 73.8108C81.3737 72.0842 82.267 70.3029 83.0601 68.4904H84.4459C84.9885 68.4904 85.4811 68.1388 85.598 67.6154L89.9642 48.9901C89.9892 48.8963 90.0059 48.8026 90.0059 48.7088C90.0059 48.0994 89.48 47.5994 88.8204 47.5994H86.5914C85.4728 40.5993 81.4155 34.3101 72.9252 30.0601C67.8077 27.4897 61.4129 26.7397 53.3066 28.4429C51.3782 29.0601 49.458 29.4507 47.5296 29.6382C47.5296 29.5991 47.5212 29.5601 47.5212 29.5288C46.845 23.7084 47.3209 18.7318 48.8069 14.5051C50.2595 10.3644 52.7055 6.91126 56.0031 4.05965C57.0216 3.18463 57.0801 1.70805 56.1534 0.754906C55.2184 -0.198234 53.6406 -0.252923 52.6221 0.614279C48.6983 4.00496 45.7931 8.1144 44.0567 13.052C43.8313 13.6926 43.6226 14.3489 43.4389 15.0208C38.4299 6.70032 29.9396 2.39556 15.9645 4.39559L10.488 4.92685C14.4869 12.7395 19.4374 20.7005 29.6725 21.8724ZM78.6522 66.2872V61.9903C78.6522 61.3731 79.1865 60.8809 79.8376 60.8809C80.4888 60.8809 81.0231 61.3809 81.0231 61.9903V66.2872H83.4858L87.3511 49.826H2.45692L3.82604 66.2872H7.26556V59.7715C7.26556 59.1621 7.7915 58.6621 8.45102 58.6621C9.10219 58.6621 9.63649 59.1543 9.63649 59.7715V66.2872H15.2549V61.9903C15.2549 61.3731 15.7892 60.8809 16.4404 60.8809C17.0915 60.8809 17.6258 61.3809 17.6258 61.9903V66.2872H22.8686V59.7715C22.8686 59.1621 23.3945 58.6621 24.0541 58.6621C24.7052 58.6621 25.2395 59.1543 25.2395 59.7715V66.2872H30.858V61.9903C30.858 61.3731 31.3922 60.8809 32.0434 60.8809C32.7029 60.8809 33.2289 61.3809 33.2289 61.9903V66.2872H39.3983V59.7715C39.3983 59.1621 39.9242 58.6621 40.5838 58.6621C41.2349 58.6621 41.7692 59.1543 41.7692 59.7715V66.2872H47.3876V61.9903C47.3876 61.3731 47.9219 60.8809 48.5731 60.8809C49.2326 60.8809 49.7586 61.3809 49.7586 61.9903V66.2872H55.0013V59.7715C55.0013 59.1621 55.5273 58.6621 56.1868 58.6621C56.838 58.6621 57.3723 59.1543 57.3723 59.7715V66.2872H62.9907V61.9903C62.9907 61.3731 63.525 60.8809 64.1762 60.8809C64.8357 60.8809 65.3616 61.3809 65.3616 61.9903V66.2872H70.6628V59.7715C70.6628 59.1621 71.1887 58.6621 71.8483 58.6621C72.4994 58.6621 73.0337 59.1543 73.0337 59.7715V66.2872H78.6522ZM20.5561 68.4982H16.3152C17.3837 70.6623 18.7111 72.6701 20.2389 74.553C22.4512 77.2718 25.1059 79.7093 28.0529 81.9672C28.8627 82.5844 30.0565 82.4672 30.7244 81.7094C31.3839 80.9515 31.2587 79.8343 30.4489 79.2093C27.7273 77.1312 25.2813 74.8811 23.2526 72.3967C22.2508 71.1623 21.3408 69.8654 20.5561 68.4982ZM91.2832 76.303H78.9444C75.8638 81.2718 71.1888 87.4126 66.1297 91.3501H91.4836L82.3421 84.4047C82.2503 84.3422 82.1585 84.2641 82.0833 84.1703C81.691 83.686 81.7911 82.9906 82.3171 82.6234L91.2832 76.303Z" fill="black"/>
</svg>
