<svg width="96" height="96" viewBox="0 0 96 96" fill="none" xmlns="http://www.w3.org/2000/svg">
<path d="M47.9999 0C21.6 0 0 21.6385 0 48.2892C0 72.3856 17.568 92.3855 40.5119 96V62.2651H28.32V48.2892H40.5119V37.6385C40.5119 25.5421 47.6639 18.8915 58.6559 18.8915C63.8879 18.8915 69.3599 19.8072 69.3599 19.8072V31.7108H63.3119C57.3599 31.7108 55.4879 35.4217 55.4879 39.229V48.2892H68.8319L66.6719 62.2651H55.4879V96C66.7986 94.2063 77.0985 88.4121 84.5274 79.6627C91.9564 70.9138 96.0258 59.7861 95.9999 48.2892C95.9999 21.6385 74.3999 0 47.9999 0Z" fill="black"/>
</svg>
