<svg width="96" height="96" viewBox="0 0 96 96" fill="none" xmlns="http://www.w3.org/2000/svg">
<path fill-rule="evenodd" clip-rule="evenodd" d="M48 72C61.2548 72 72 61.2548 72 48C72 34.7452 61.2548 24 48 24C34.7452 24 24 34.7452 24 48C24 61.2548 34.7452 72 48 72ZM48 64C56.8364 64 64 56.8364 64 48C64 39.1634 56.8364 32 48 32C39.1634 32 32 39.1634 32 48C32 56.8364 39.1634 64 48 64Z" fill="#0F0F0F"/>
<path d="M72 20C69.7908 20 68 21.7909 68 24C68 26.2091 69.7908 28 72 28C74.2092 28 76 26.2091 76 24C76 21.7909 74.2092 20 72 20Z" fill="#0F0F0F"/>
<path fill-rule="evenodd" clip-rule="evenodd" d="M6.61584 17.1042C4 22.2381 4 28.9588 4 42.4V53.6C4 67.0412 4 73.762 6.61584 78.8956C8.9168 83.4116 12.5883 87.0832 17.1042 89.384C22.2381 92 28.9588 92 42.4 92H53.6C67.0412 92 73.762 92 78.8956 89.384C83.4116 87.0832 87.0832 83.4116 89.384 78.8956C92 73.762 92 67.0412 92 53.6V42.4C92 28.9588 92 22.2381 89.384 17.1042C87.0832 12.5883 83.4116 8.9168 78.8956 6.61584C73.762 4 67.0412 4 53.6 4H42.4C28.9588 4 22.2381 4 17.1042 6.61584C12.5883 8.9168 8.9168 12.5883 6.61584 17.1042ZM53.6 12H42.4C35.5474 12 30.889 12.0062 27.2883 12.3004C23.781 12.587 21.9874 13.1064 20.7362 13.7439C17.7256 15.2779 15.2779 17.7256 13.7439 20.7362C13.1064 21.9874 12.587 23.781 12.3004 27.2883C12.0062 30.889 12 35.5474 12 42.4V53.6C12 60.4528 12.0062 65.1108 12.3004 68.7116C12.587 72.2192 13.1064 74.0128 13.7439 75.264C15.2779 78.2744 17.7256 80.722 20.7362 82.256C21.9874 82.8936 23.781 83.4132 27.2883 83.6996C30.889 83.9936 35.5474 84 42.4 84H53.6C60.4528 84 65.1108 83.9936 68.7116 83.6996C72.2192 83.4132 74.0128 82.8936 75.264 82.256C78.2744 80.722 80.722 78.2744 82.256 75.264C82.8936 74.0128 83.4132 72.2192 83.6996 68.7116C83.9936 65.1108 84 60.4528 84 53.6V42.4C84 35.5474 83.9936 30.889 83.6996 27.2883C83.4132 23.781 82.8936 21.9874 82.256 20.7362C80.722 17.7256 78.2744 15.2779 75.264 13.7439C74.0128 13.1064 72.2192 12.587 68.7116 12.3004C65.1108 12.0062 60.4528 12 53.6 12Z" fill="#0F0F0F"/>
</svg>
