<svg width="96" height="96" viewBox="0 0 96 96" fill="none" xmlns="http://www.w3.org/2000/svg">
<path d="M26 32C29.3137 32 32 29.3137 32 26C32 22.6863 29.3137 20 26 20C22.6863 20 20 22.6863 20 26C20 29.3137 22.6863 32 26 32Z" fill="#0F0F0F"/>
<path d="M20 40C20 37.7909 21.7909 36 24 36H28C30.2091 36 32 37.7908 32 40V72C32 74.2092 30.2091 76 28 76H24C21.7909 76 20 74.2092 20 72V40Z" fill="#0F0F0F"/>
<path d="M44 76H48C50.2092 76 52 74.2092 52 72V54C52 48 64 44 64 52V72.0016C64 74.2108 65.7908 76 68 76H72C74.2092 76 76 74.2092 76 72V48C76 40 70 36 62 36C54 36 52 42 52 42V40C52 37.7908 50.2092 36 48 36H44C41.7908 36 40 37.7909 40 40V72C40 74.2092 41.7908 76 44 76Z" fill="#0F0F0F"/>
<path fill-rule="evenodd" clip-rule="evenodd" d="M80 4C86.6276 4 92 9.3726 92 16V80C92 86.6276 86.6276 92 80 92H16C9.3726 92 4 86.6276 4 80V16C4 9.3726 9.3726 4 16 4H80ZM80 12C82.2092 12 84 13.7909 84 16V80C84 82.2092 82.2092 84 80 84H16C13.7909 84 12 82.2092 12 80V16C12 13.7909 13.7909 12 16 12H80Z" fill="#0F0F0F"/>
</svg>
