<svg width="96" height="96" viewBox="0 0 96 96" fill="none" xmlns="http://www.w3.org/2000/svg">
<path fill-rule="evenodd" clip-rule="evenodd" d="M81.9419 14.0585C100.687 32.804 100.687 63.1964 81.9419 81.9419C63.1964 100.687 32.804 100.687 14.0585 81.9419C-4.68617 63.1964 -4.68617 32.804 14.0585 14.0585C32.804 -4.68617 63.1964 -4.68617 81.9419 14.0585ZM73.1309 45.2728C74.6371 45.2728 75.8574 46.4939 75.8574 47.9994C75.8574 49.5057 74.6363 50.726 73.1309 50.726C56.3768 50.726 39.622 50.726 22.8687 50.726C21.3625 50.726 20.1414 49.5049 20.1414 47.9994C20.1414 46.4939 21.3625 45.2728 22.8687 45.2728C39.6228 45.2728 56.3768 45.2728 73.1309 45.2728Z" fill="black"/>
</svg>
