<svg width="96" height="96" viewBox="0 0 96 96" fill="none" xmlns="http://www.w3.org/2000/svg">
<path d="M41.3711 63.4641C38.8543 76.6547 35.7829 89.3004 26.6813 95.9062C23.8695 75.9694 30.8051 60.996 34.0262 45.0992C28.5338 35.8569 34.6858 17.2558 46.2671 21.8381C60.5173 27.4755 33.9279 56.2029 51.7759 59.7913C70.4143 63.5364 78.0238 27.4521 66.4682 15.7187C49.7689 -1.22606 17.8599 15.3328 21.7828 39.5927C22.7372 45.5226 28.8638 47.3214 24.2319 55.5084C13.5443 53.1366 10.356 44.7084 10.7653 33.471C11.4272 15.0758 27.2918 2.19844 43.2073 0.416069C63.3336 -1.83656 82.2225 7.80319 84.8306 26.7366C87.7688 48.1074 75.7478 71.2513 54.225 69.5857C48.3909 69.132 45.9418 66.2406 41.3711 63.4641Z" fill="black"/>
</svg>
