<svg width="96" height="96" viewBox="0 0 96 96" fill="none" xmlns="http://www.w3.org/2000/svg">
<g clip-path="url(#clip0_29_10)">
<path d="M47.9981 0C61.2506 0 73.2544 5.37375 81.9394 14.0588C90.6244 22.7438 96 34.7456 96 48C96 61.2525 90.6244 73.2544 81.9394 81.9394C73.2544 90.6244 61.2506 96 47.9981 96C34.7456 96 22.7438 90.6244 14.0588 81.9394C5.37375 73.2544 0 61.2525 0 48C0 34.7494 5.37375 22.7438 14.0588 14.0588C22.7438 5.37375 34.7456 0 47.9981 0ZM62.5106 50.5894C65.0888 48.9244 65.0794 47.07 62.5106 45.5962L41.835 31.2019C39.7369 29.8819 37.5431 30.6581 37.6012 33.3994L37.6837 62.3625C37.8637 65.3363 39.5625 66.1519 42.0656 64.7756L62.5106 50.5894ZM77.3887 18.6094C69.87 11.0906 59.475 6.43688 47.9981 6.43688C36.5213 6.43688 26.13 11.0906 18.6094 18.6094C11.0906 26.13 6.43688 36.5231 6.43688 48C6.43688 59.4788 11.0906 69.87 18.6094 77.3887C26.13 84.9094 36.5213 89.5631 47.9981 89.5631C59.475 89.5631 69.87 84.9094 77.3887 77.3887C84.9094 69.87 89.5631 59.4788 89.5631 48C89.5631 36.5212 84.9094 26.13 77.3887 18.6094Z" fill="black"/>
</g>
<defs>
<clipPath id="clip0_29_10">
<rect width="96" height="96" fill="white"/>
</clipPath>
</defs>
</svg>
