<svg width="96" height="96" viewBox="0 0 96 96" fill="none" xmlns="http://www.w3.org/2000/svg">
<path fill-rule="evenodd" clip-rule="evenodd" d="M81.9419 14.0585C100.687 32.804 100.687 63.1964 81.9419 81.9419C63.1964 100.687 32.804 100.687 14.0585 81.9419C-4.68617 63.1964 -4.68617 32.804 14.0585 14.0585C32.804 -4.68617 63.1964 -4.68617 81.9419 14.0585ZM73.1309 45.2728C74.6371 45.2728 75.8575 46.4939 75.8575 47.9994C75.8575 49.5057 74.6364 50.726 73.1309 50.726H50.7268V73.1309C50.7268 74.6371 49.5057 75.8575 48.0002 75.8575C46.4947 75.8575 45.2744 74.6364 45.2744 73.1309V50.7268H22.8687C21.3625 50.7268 20.1414 49.5057 20.1414 48.0002C20.1414 46.4947 21.3625 45.2736 22.8687 45.2736H45.2736V22.868C45.2736 21.3625 46.4947 20.1414 47.9994 20.1414C49.5057 20.1414 50.726 21.3625 50.726 22.868V45.2728H73.1309Z" fill="black"/>
</svg>
