<svg width="96" height="96" viewBox="0 0 96 96" fill="none" xmlns="http://www.w3.org/2000/svg">
<g clip-path="url(#clip0_29_12)">
<path fill-rule="evenodd" clip-rule="evenodd" d="M50.6406 54.3894L88.4531 55.0267C88.4531 68.7217 81.7734 81.5243 70.6328 89.1724L50.6406 54.3894ZM46.8672 47.7371L46.4375 2.89195L46.4141 0L49.2344 0.19917H49.2422H49.25C52.8125 0.454108 56.2656 1.09145 59.5703 2.05544C62.875 3.01942 66.0469 4.33394 69.0469 5.93527C84.4141 14.1729 95.0391 30.2818 95.875 48.972L96 51.848L93.1797 51.7603L49.4141 50.39L46.8906 50.3104L46.8672 47.7371ZM51.7109 5.83967L52.0859 45.124L90.4141 46.319C88.7734 30.8236 79.5703 17.6226 66.6016 10.6755C63.9375 9.24946 61.1016 8.07834 58.1328 7.20996C56.0469 6.59651 53.9063 6.14241 51.7109 5.83967ZM43.1172 52.0312L64.6797 90.1125C58.1328 93.9685 50.6797 96 43.1172 96C19.3047 96 0 76.3061 0 52.0312C0 28.4734 18.2109 9.09012 41.2969 8.10224L43.1172 52.0312Z" fill="black"/>
</g>
<defs>
<clipPath id="clip0_29_12">
<rect width="96" height="96" fill="white"/>
</clipPath>
</defs>
</svg>
