<svg width="96" height="96" viewBox="0 0 96 96" fill="none" xmlns="http://www.w3.org/2000/svg">
<g clip-path="url(#clip0_29_61)">
<path fill-rule="evenodd" clip-rule="evenodd" d="M48 47.9999C37.3608 47.9999 28.7086 39.3887 28.7086 28.7999C28.7086 18.2111 37.3608 9.59993 48 9.59993C58.6392 9.59993 67.2914 18.2111 67.2914 28.7999C67.2914 39.3887 58.6392 47.9999 48 47.9999ZM66.1243 51.2302C73.7782 45.1006 78.2393 35.1885 76.5996 24.3357C74.6945 11.7453 64.1711 1.67029 51.4677 0.201489C33.9366 -1.82891 19.0629 11.7551 19.0629 28.7999C19.0629 37.8719 23.2877 45.955 29.8757 51.2302C13.6902 57.283 1.87422 71.4959 0.0222435 90.6767C-0.247833 93.5135 1.97552 95.9999 4.8403 95.9999C7.29513 95.9999 9.38826 94.1568 9.60529 91.7232C11.5393 70.3008 28.0189 57.5999 48 57.5999C67.9811 57.5999 84.4608 70.3008 86.3947 91.7232C86.6118 94.1568 88.7049 95.9999 91.1597 95.9999C94.0245 95.9999 96.2478 93.5135 95.9778 90.6767C94.1258 71.4959 82.3098 57.283 66.1243 51.2302Z" fill="black"/>
</g>
<defs>
<clipPath id="clip0_29_61">
<rect width="96" height="96" fill="white"/>
</clipPath>
</defs>
</svg>
