<svg width="96" height="96" viewBox="0 0 96 96" fill="none" xmlns="http://www.w3.org/2000/svg">
<path d="M54 66C53.9997 69.7577 52.8853 73.431 50.7976 76.5555C48.7098 79.6799 45.7426 82.1152 42.271 83.5535C38.7993 84.9919 34.979 85.3684 31.2933 84.6353C27.6075 83.9022 24.2221 82.0924 21.565 79.435C18.9076 76.7779 17.0979 73.3924 16.3648 69.7067C15.6317 66.021 16.0082 62.2007 17.4465 58.729C18.8846 55.2573 21.3199 52.2899 24.4444 50.2022C27.5688 48.1145 31.2422 47.0001 35 47" stroke="black" stroke-width="6" stroke-linecap="round"/>
<path d="M54 66V11C54 20 66 36 80 36" stroke="black" stroke-width="6" stroke-linecap="round" stroke-linejoin="round"/>
</svg>
