<svg width="96" height="96" viewBox="0 0 96 96" fill="none" xmlns="http://www.w3.org/2000/svg">
<path fill-rule="evenodd" clip-rule="evenodd" d="M52.9998 22.4837C44.819 19.7905 37.9664 21.6651 33.122 26.1838C33.71 26.4737 34.2303 26.8952 34.6461 27.4185C35.0619 27.9418 35.3631 28.5542 35.5286 29.2127C38.654 41.68 40.9981 36.31 42.1311 40.886C43.0314 44.1319 43.5561 47.4795 43.6938 50.8566C43.8342 50.7989 43.9777 50.7497 44.1235 50.7093C44.691 50.5488 45.2832 50.5075 45.8659 50.5879C46.4487 50.6683 47.0105 50.8688 47.5189 51.1778C48.0274 51.4867 48.4724 51.8981 48.8284 52.3881C49.1844 52.8781 49.4443 53.4371 49.5931 54.0328C51.8122 62.7755 51.8512 68.5058 49.9134 72.8608C48.2101 76.4626 45.4909 78.7056 41.7248 80.4574C42.4514 81.2023 43.2094 81.9391 44.0063 82.6595C50.2572 87.3419 55.7268 86.7034 60.7978 83.8055C64.8375 85.8111 69.1037 86.6051 73.6903 84.8042C80.4335 82.1519 87.3017 71.7065 90.5365 65.1577C97.5688 50.9958 100.007 32.8227 84.2387 23.9654C79.9334 21.5505 74.5576 20.8383 67.7441 22.4428C66.0873 23.0216 64.3681 23.3819 62.6262 23.5152C62.556 20.2372 63.0076 16.9699 63.9623 13.8474C65.134 10.0804 67.2177 6.69596 70.0101 4.02416C70.26 3.84651 70.4704 3.61454 70.627 3.34403C70.7836 3.07353 70.8827 2.77084 70.9176 2.45659C70.9525 2.14234 70.9224 1.82389 70.8293 1.52294C70.7361 1.22199 70.5822 0.945591 70.3779 0.712573C70.1737 0.479554 69.9239 0.295383 69.6456 0.172599C69.3673 0.0498159 69.067 -0.00869714 68.7651 0.00104417C68.4633 0.0107855 68.167 0.0885524 67.8964 0.22905C67.6259 0.369548 67.3874 0.569477 67.1972 0.815226C63.8586 3.99019 61.3675 8.02201 59.9696 12.5131L59.7899 13.0943C55.4767 5.14565 48.1007 1.00351 36.0677 2.93542L31.317 3.45114C34.7941 11.0232 39.0681 18.7427 47.9444 19.8806C51.3199 20.3144 54.9767 19.5204 58.8835 17.3838L58.6803 18.2433H58.7272C58.504 19.9988 58.4022 21.7689 58.4225 23.5397C56.5839 23.3882 54.7661 23.0314 52.9998 22.4755V22.4837ZM13.7129 26.3475C17.9713 19.2584 16.4086 12.816 5.95398 7.40501C2.82853 15.6484 4.11778 24.4484 13.7129 26.3475ZM34.5362 82.9623L38.2868 81.276L43.139 93.023C44.2017 95.6016 40.459 97.2961 39.3963 94.7175L34.5519 82.9705L34.5362 82.9623ZM24.5192 47.9751C31.6608 45.4129 34.2471 42.3922 31.2545 30.3996C25.6443 35.0411 19.1199 38.3647 24.5504 47.9751H24.5192ZM19.4169 35.6469C26.0741 33.2484 28.4885 30.4406 25.6678 19.2748C20.4483 23.5888 14.3849 26.6832 19.4169 35.6469ZM32.8719 79.2459C24.402 83.9201 19.5341 83.8055 11.5798 70.4622C20.542 69.0624 29.1292 65.657 32.8719 79.2459ZM26.4491 63.6105C18.9168 67.769 14.549 67.7035 7.50889 55.801C15.4788 54.5567 23.1361 51.5115 26.4491 63.6105ZM20.7296 49.6942C14.0645 53.3861 10.1577 53.2879 3.90681 42.8015C10.9781 41.7046 17.7526 39.0032 20.7139 49.7351L20.7296 49.6942ZM15.6273 37.3496C9.37635 40.7878 5.79771 40.7059 0 30.8908C6.57907 29.8594 12.9003 27.3544 15.6273 37.3496ZM36.724 77.4613C45.78 74.1869 49.0618 70.3886 45.2096 55.1952C38.1227 61.1056 29.8637 65.3214 36.724 77.4859V77.4613ZM30.2778 61.8751C38.3258 58.9854 41.2169 55.58 37.8258 42.073C31.4967 47.2957 24.1519 51.0776 30.2778 61.8751ZM35.5833 5.59589C44.6783 8.20724 50.4917 9.36147 57.7271 16.1641C48.5226 13.7901 42.9749 11.6945 35.5833 5.59589Z" fill="black"/>
</svg>
