<svg width="96" height="96" viewBox="0 0 96 96" fill="none" xmlns="http://www.w3.org/2000/svg">
<path fill-rule="evenodd" clip-rule="evenodd" d="M76.744 8.35999C78.828 9.35999 81.288 10.808 83.244 12.764C85.204 14.724 86.652 17.18 87.644 19.264C88.896 21.88 88.084 24.896 86.04 26.944L57.184 55.796C55.944 57.036 54.432 57.96 52.764 58.496L35.876 63.908C35.3507 64.0765 34.7892 64.0969 34.2531 63.967C33.717 63.837 33.2271 63.5618 32.8372 63.1716C32.4474 62.7813 32.1727 62.2911 32.0433 61.7548C31.9139 61.2186 31.9349 60.6571 32.104 60.132L37.516 43.248C38.0502 41.5811 38.9745 40.0658 40.212 38.828L69.068 9.97199C71.116 7.92399 74.132 7.11599 76.748 8.36399L76.744 8.35999ZM77.588 18.424C76.5999 17.4906 75.4849 16.7015 74.276 16.08L46.3 44.056C46.0157 44.3398 45.7757 44.6648 45.588 45.02L39.6 56.408L50.984 50.424C51.344 50.236 51.668 49.996 51.952 49.712L79.928 21.736C79.3064 20.5272 78.5213 19.4122 77.588 18.424ZM19.996 22C19.9951 21.4891 20.1899 20.9972 20.5402 20.6253C20.8905 20.2534 21.3699 20.0296 21.88 20L44 20.02C45.0609 20.02 46.0783 19.5986 46.8284 18.8484C47.5786 18.0983 48 17.0809 48 16.02C48 14.9591 47.5786 13.9417 46.8284 13.1916C46.0783 12.4414 45.0609 12.02 44 12.02L22 12C19.3478 12 16.8043 13.0536 14.9289 14.9289C13.0536 16.8043 12 19.3478 12 22V72.308C12 75.348 12.328 77.048 13.276 78.816C14.172 80.492 15.508 81.832 17.184 82.728C18.952 83.672 20.648 84 23.692 84H72.308C75.348 84 77.048 83.672 78.816 82.728C80.496 81.832 81.832 80.492 82.728 78.816C83.672 77.048 84 75.352 84 72.308V52C84 50.9391 83.5786 49.9217 82.8284 49.1716C82.0783 48.4214 81.0609 48 80 48C78.9391 48 77.9217 48.4214 77.1716 49.1716C76.4214 49.9217 76 50.9391 76 52V72.308C76 74.144 75.916 74.592 75.672 75.044C75.5332 75.3136 75.3136 75.5332 75.044 75.672C74.592 75.912 74.144 76 72.308 76H23.692C21.856 76 21.412 75.912 20.956 75.672C20.6862 75.5334 20.4666 75.3138 20.328 75.044C20.088 74.592 20 74.144 20 72.308L19.996 22Z" fill="black"/>
</svg>
