<svg width="96" height="96" viewBox="0 0 96 96" fill="none" xmlns="http://www.w3.org/2000/svg">
<g clip-path="url(#clip0_29_42)">
<path fill-rule="evenodd" clip-rule="evenodd" d="M37.9846 28.527C36.7466 27.8196 35.2256 27.8247 33.9923 28.5404C32.759 29.256 32 30.5741 32 32V64C32 65.426 32.759 66.744 33.9923 67.4596C35.2256 68.1752 36.7466 68.1804 37.9846 67.4728L65.9844 51.4728C67.2308 50.7608 68 49.4356 68 48C68 46.5644 67.2308 45.2392 65.9844 44.5272L37.9846 28.527ZM55.9376 48L40 57.1072V38.8927L55.9376 48Z" fill="#0F0F0F"/>
<path fill-rule="evenodd" clip-rule="evenodd" d="M0 48C0 33.0011 0 25.5016 3.81966 20.2443C5.05324 18.5464 6.5464 17.0532 8.24428 15.8196C13.5016 12 21.0011 12 36 12H60C74.9988 12 82.4984 12 87.7556 15.8196C89.4536 17.0532 90.9468 18.5464 92.1804 20.2443C96 25.5016 96 33.0011 96 48C96 62.9988 96 70.4984 92.1804 75.7556C90.9468 77.4536 89.4536 78.9468 87.7556 80.1804C82.4984 84 74.9988 84 60 84H36C21.0011 84 13.5016 84 8.24428 80.1804C6.5464 78.9468 5.05324 77.4536 3.81966 75.7556C0 70.4984 0 62.9988 0 48ZM36 20H60C67.6776 20 72.7932 20.011 76.6692 20.4309C80.3956 20.8346 82.016 21.5379 83.0536 22.2918C84.072 23.032 84.968 23.9278 85.7084 24.9466C86.462 25.9842 87.1652 27.6045 87.5692 31.3308C87.9892 35.2067 88 40.3224 88 48C88 55.6776 87.9892 60.7932 87.5692 64.6692C87.1652 68.3956 86.462 70.016 85.7084 71.0536C84.968 72.072 84.072 72.968 83.0536 73.7084C82.016 74.462 80.3956 75.1652 76.6692 75.5692C72.7932 75.9892 67.6776 76 60 76H36C28.3223 76 23.2067 75.9892 19.3308 75.5692C15.6045 75.1652 13.9842 74.462 12.9466 73.7084C11.9278 72.968 11.032 72.072 10.2918 71.0536C9.53792 70.016 8.83464 68.3956 8.43092 64.6692C8.011 60.7932 8 55.6776 8 48C8 40.3224 8.011 35.2067 8.43092 31.3308C8.83464 27.6045 9.53792 25.9842 10.2918 24.9466C11.032 23.9278 11.9278 23.032 12.9466 22.2918C13.9842 21.5379 15.6045 20.8346 19.3308 20.4309C23.2067 20.011 28.3223 20 36 20Z" fill="#0F0F0F"/>
</g>
<defs>
<clipPath id="clip0_29_42">
<rect width="96" height="96" fill="white"/>
</clipPath>
</defs>
</svg>
